<?xml version="1.0" encoding="UTF-8"?>
<svg xmlns="http://www.w3.org/2000/svg" viewBox="0 0 6356 5534" width="6356" height="5534">
  <defs>
    <clipPath id="cp1">
      <path d="m0 5533.23h6355.59v-5533.23h-6355.59z"></path>
    </clipPath>
    <clipPath id="cp2">
      <path d="m0 5533.23h6355.59v-5533.23h-6355.59z"></path>
    </clipPath>
    <clipPath id="cp3">
      <path d="m0 5533.23h6355.59v-5533.23h-6355.59z"></path>
    </clipPath>
    <clipPath id="cp4">
      <path d="m0 5533.23h6355.59v-5533.23h-6355.59z"></path>
    </clipPath>
  </defs>
  <style>		.s0 { fill: #f07f1c } 		.s1 { fill: #737373 } 		.s2 { fill: #ffffff } 		.s3 { fill: #1c1b18 } 	</style>
  <g id="Clip-Path: g10" clip-path="url(#cp1)">
    <g id="g10">
      <path id="path16" fill-rule="evenodd" class="s0" d="m3458.55 2.97c1528.75-69.92 2824.14 1112.12 2894.06 2641.21 59.23 1299.25-785.31 2422.15-1977.6 2779.01-195.82 59.49-436.87 108.92-642.86 109.6-95.24 0-190.64-11.98-279.49-43.61 173.59 6.99 334.33-16.75 506.6-45.47 1857.64-500.26 2928.42-2742.5 1246.98-4227.29-1109.59-750.27-2187.13-606.12-3055.4 413.75 189.61 95.36 273.26 149.21 434.23 291.81 690.55-273.33 1086.35-55.74 1500.24 567.5l-2204.33 22.26-20.53 172.84c1204.62-59.45 2245.35-69.62 3454.68-22.79-1483.08 159.87-2804.52 356.48-4218.14 772.72l-185.35 63.16c-10.47 2.12-5.44-20.3-8.69-30.77-47.09-183.11-76.69-373.26-85.64-569.95-69.93-1529.01 1113.75-2824.18 2641.24-2893.98z"></path>
      <path id="path18" fill-rule="evenodd" class="s1" d="m5684.69 2728.01c-1422.53 616.51-2676.02 1642.47-3685.04 2805.2-18.67-310.56-42.44-610.66-59.41-847.14-28.99-406.19-317.06-839.55-817.62-822.58l-1122.6 37.72c1489.81-600.23 4154.15-1076.48 5684.67-1173.2z"></path>
      <path id="path20" fill-rule="evenodd" class="s2" d="m2418.24 3850.22l-92.98-181.22 375.65-122.39 80.35 168.12z"></path>
      <path id="path22" fill-rule="evenodd" class="s2" d="m3071.6 3581.65l-72.15-154.2 356.79-82.93 62.93 142.45z"></path>
      <path id="path24" fill-rule="evenodd" class="s2" d="m3685.7 3381.34l-54.65-122.01 314.27-64.82 41.8 100.35z"></path>
      <path id="path26" fill-rule="evenodd" class="s2" d="m1558.21 3982.81l381.58-121.06 72.98 168.53-278.14 113.69z"></path>
      <g id="g28">
        <g id="g30">				</g>
        <g id="g82">
          <g id="Clip-Path: g80" clip-path="url(#cp2)">
            <g id="g80">
              <path id="path36" class="s3" d="m872.11 3042.73l-56.35 9.22 27.77 170.12-42.89 6.91-27.48-170.04-56.39 9.15-4.54-27.48 155.3-25.4z"></path>
              <path id="path38" class="s3" d="m1159.81 3170.78l-48 7.82-60.97-78.69-34.24 5.6 14.1 86.32-42.9 7.07-32.13-197.97 85.53-13.69c24.23-4.27 46.04-2.45 61.38 2.39 19.47 7.29 29.11 20.52 32.13 37.98 4.35 27.33-7.82 46.94-38.25 60.43zm-68.48-134.25c-2.95-19.08-19.66-26.6-49.1-22.11l-39.35 6.51 9.42 58.77 39.42-6.47c29.4-4.87 42.82-17.23 39.61-36.7z"></path>
              <path id="path40" class="s3" d="m1427.25 3127.39l-46.98 7.56-26.16-49.1-66.22 10.85-8.92 54.95-45.54 7.26 42.6-209.99 44.18-7.29zm-85.76-66.03l-16.97-31.6c-2.42-4.04-8.96-17.5-19.92-41.8-1.7 10.77-3.28 26.45-6.84 46.15l-5.86 35.37z"></path>
              <path id="path42" class="s3" d="m1683.08 3085.85l-35.07 5.67-91.39-93.54c-6.46-8.58-16.4-17.8-26.99-29.33 2.54 9.94 4.65 23.39 7.34 40.4l16.25 97.85-41.43 6.77-32.05-197.9 41.88-6.8 81.6 83.87c7.26 7.56 15.91 17.31 27.29 28.31-2.72-9.68-5.75-23.17-8.09-39.08l-14.29-87.05 42.6-6.99z"></path>
              <path id="path44" class="s3" d="m1923.8 2994.16c2.72 15.99-2.68 30.5-15.38 43.24-12.97 11.26-32.92 19.92-59.79 24.23-33.79 5.44-62.1-1.36-85.76-18.9l31.78-22.41c15.65 11.41 33.72 17.08 53.18 13.79 23.21-3.78 35.26-14.29 32.62-31.03-1.4-7.52-6.5-14.44-14.02-18.56-7.03-4.87-22.38-10.01-44.22-15.08-22.15-5.14-37.54-10.28-47.17-16.51-13.5-8.05-22.19-19.66-24.57-32.85-2.19-15.15 3.18-28.31 15.35-39.57 13.71-10.81 30.5-18.63 53.93-22.75 30.2-4.8 56.96-0.46 79.26 14.89l-28.31 22.68c-8.36-4.54-16.97-8.36-24-10.06-5.45-1.58-14.29-1.85-23.21-0.49-21.84 3.78-30.73 12.89-28.57 26.16 1.13 7.52 4.87 13.98 12.17 17.76 7.52 4.08 19.65 8.39 38.25 12.66 24.3 5.63 41.27 10.77 52.83 17.5 15.12 8.66 23.17 20.26 25.63 35.3z"></path>
              <path id="path46" class="s3" d="m2166.75 2863.54c3.21 19.31-3.63 35.72-19.47 48.68-15.34 12.7-34.5 21.05-58.77 25.1l-36.06 5.74 12.86 80.54-42.83 7-31.86-197.86 80.39-12.93c24.57-4.12 44.49-2.15 61.72 3.48 19.47 8.12 31.03 21.84 34.02 40.25zm-44.26 8.09c-1.93-10.85-7.26-18.67-16.44-21.39-9.9-3.75-20.52-4.54-32.85-2.42l-35.3 5.63 10.17 62.85 35.91-5.93c12.66-1.89 22.94-6.5 30.76-12.7 7.18-6.88 9.41-15.31 7.75-26.04z"></path>
              <path id="path48" class="s3" d="m2430.9 2862.67c4.84 30.2 2.15 55.6-9.98 75.74-12.85 22.08-35.53 35.83-65.76 40.71-31.03 5.1-56.05-1.06-74.38-17.77-17.81-14.55-28.61-38.55-33.45-67.99-4.88-30.16-2.12-56.31 9.94-76.23 11.94-21.89 33.98-35.87 64.74-40.78 31.26-5.33 57.18 1.09 76.27 17.84 16.75 14.32 27.74 38.21 32.62 68.48zm-42.56 7.79c-3.51-21.05-9.41-36.93-20.22-49.29-10.77-14.55-24.83-20.75-42.33-18.1-31.03 5.14-42.86 32.88-34.81 82.2 3.21 21.06 9.45 37.53 19.2 49.7 10.77 13.76 24.76 19.92 41.5 17.16 31.79-5.14 44.71-32.05 36.66-81.67z"></path>
              <path id="path50" class="s3" d="m2712.89 2918.46l-47.96 7.82-60.1-78.73-35.34 5.67 13.99 86.18-42.52 7.06-32.17-197.89 85.5-13.95c25.02-4.01 45.35-2.15 61.72 2.95 19.16 6.99 29.97 19.92 32.92 37.72 4.31 26.98-8.92 47.17-39.39 60.4zm-68.22-134.25c-2.91-19.13-19.16-26.99-49.24-22.11l-39.35 6.46 9.11 58.51 39.65-6.16c30.42-4.88 42.82-17.65 39.83-36.7z"></path>
              <path id="path52" class="s3" d="m2917.51 2710.28l-56.05 9.22 27.78 170.42-42.9 6.69-27.81-170.08-56.28 9.19-4.31-27.48 155.04-25.4z"></path>
              <path id="path54" class="s3" d="m3356.92 2813.88l-43.61 7.03-18.6-13.99c-12.93 14.78-33.71 24.99-58.02 29.03-24.49 3.74-42.06 1.62-55.74-4.04-13.23-7.26-20.26-18.03-22.68-32.28-3.78-23.51 8.88-46.98 39.68-69.02l-8.61-7.33c-12.17-10.28-19.2-15.95-22.68-20.75-5.97-6.46-9.71-12.92-10.81-19.46-1.85-12.59 2.99-23.62 14.59-32.62 11.79-10.47 27.51-16.4 49.02-19.88 24.57-4.08 47.73-2.76 70.64 3.7l-16.52 26.95c-18.74-5.63-36.58-8.01-50.08-5.63-19.08 3.29-25.55 10.24-24.26 19.47 1.66 9.41 6.5 18.02 18.25 28.04l65.31 51.44c3.03-8.32 5.49-19.92 7.11-31.26h36.09c-4.57 24.04-9.48 42.03-15.38 54.99zm-85.98-25.58l-50.38-40.71c-16.45 16.1-23.78 28.76-21.62 41.73 2.79 17.01 15.15 24.56 37.75 20.79 15.12-2.46 25.93-10.25 34.25-21.81z"></path>
              <path id="path56" class="s3" d="m3723.31 2754.27l-140.11 22.68-31.86-197.86 42.1-6.76 27.41 171.17 98.19-15.95z"></path>
              <path id="path58" class="s3" d="m3965.69 2613.34c4.88 30.16 2.19 55.44-10.73 75.89-12.97 21.84-34.81 35.72-65.77 40.78-30.2 4.84-55.29-1.36-74.46-18.07-16.93-14.51-27.74-38.55-32.69-67.91-4.76-30.16-2.15-56.36 9.3-76.31 12.93-22.11 34.43-35.79 64.89-40.75 31-5.1 56.92 0.91 75.22 18.07 18.67 14.1 29.18 38.02 34.24 68.3zm-43.39 8.01c-3.51-21.02-9.45-37.15-19.35-49.25-11.11-14.89-25.66-21.13-42.33-18.41-32.13 5.45-43.73 33.19-35.95 82.55 3.6 20.94 10.29 37.15 20.3 49.29 8.88 14.02 23.96 19.95 40.67 17.23 31.82-5.1 44.75-32.05 36.66-81.41z"></path>
              <path id="path60" class="s3" d="m4233.13 2612.16c2.98 18.41-1.36 32.96-13.99 46.11-12.17 14.06-33.18 23.51-61.71 28.12-30.81 5.11-56.09-1.13-75.97-17.84-17.39-15.34-27.9-38.51-32.73-67.65-4.88-32.05-2.76-58.54 10.73-77.67 12.77-21.81 35.68-35.22 65.88-39.87 44.48-7.33 73.85 3.21 89.16 34.51l-41.69 14.24c-4.88-9.44-10.02-15.38-17.54-18.33-6.8-4-16.14-4.31-26.42-2.61-16.48 2.61-27.25 11.27-33.22 26.84-6.43 13.76-6.99 32.13-3.25 55.63 3.25 19.17 9.22 34.78 18.9 47.74 11.11 13.64 25.89 19.65 44.22 16.89 14.32-2.34 23.73-7.25 28.08-13.15 5.93-5.89 7.52-15.95 5.59-28.57l-2.11-14.36-34.47 5.74-4.39-26.72 77.67-12.74z"></path>
              <path id="path62" class="s3" d="m4385.22 2646.71l-42.9 7.07-32.09-197.97 42.94-7z"></path>
              <path id="path64" class="s3" d="m4629.15 2554.49c2.76 15.95-2.65 30.69-15.31 43.08-12.74 11.42-32.96 19.7-58.81 24.12-34.51 5.67-63.91-0.87-86.74-18.63l31.75-22.38c15.65 11.34 33.98 16.89 52.27 13.72 24.04-3.74 36.4-14.21 33.75-31.03-1.32-7.48-5.89-14.82-14.32-18.33-6.65-5.07-22.38-10.24-43.66-15.35-22.37-5.06-37.98-10.24-48.49-16.44-12.4-8.08-20.29-19.61-22.45-33.14-2.72-14.86 2.5-28.05 14.36-39.35 12.63-10.88 30.47-18.63 53.9-22.6 30.2-4.87 56.62-0.68 78.95 15.04l-28.27 22.34c-9.18-4.31-16.7-8.35-23.17-9.94-6.76-1.36-14.89-1.81-24.83-0.23-20.25 3.25-30.76 12.93-28.53 26.38 1.28 7.34 5.89 13.5 13.42 17.24 7.29 4.08 19.12 8.43 38.02 12.96 24.26 5.6 42.06 10.25 52.08 17.28 15.12 8.92 23.92 20.14 26.08 35.26z"></path>
              <path id="path66" class="s3" d="m4839.74 2398.17l-56.35 8.96 27.78 170.22-42.67 7.07-27.67-170.34-56.16 9.18-4.54-27.47 155.3-25.4z"></path>
              <path id="path68" class="s3" d="m5000.67 2546.67l-42.85 6.76-32.05-197.59 42.82-7.07z"></path>
              <path id="path70" class="s3" d="m5255.72 2505.17l-149.1 24.34-32.39-197.9 143.54-23.17 4.27 26.84-99.81 16.29 8.65 52.83 64.48-10.54 4.53 26.72-64.74 10.43 10.58 64.74 105.72-17.23z"></path>
              <path id="path72" class="s3" d="m5513.97 2463.29l-46.11 7.41-72.26-89.84-20.71 31.03 11.83 72.04-42.86 6.87-32.43-197.74 42.97-6.77 8.09 50.16c2.19 12.32 3.78 22.6 4.31 32.05 4.8-8.58 11.03-18.11 19.69-32.66l41.84-61.72 48.45-7.86-55.75 80.35z"></path>
              <path id="path74" class="s3" d="m1505.1 2155.75l-19.88-122.04c-1.85-11.91-5.48-18.98-8.99-22.98-5.07-5.67-10.51-7.49-20.15-6.2l-17.27 3.02c-63.61 10.25-130.47 33.45-176.62 57.6-57.94 28.16-87.87 49.89-78.69 104.66l108.4 668.86c2.12 12.93 10.47 21.02 20.18 19.43l145.02-23.74c10.25-1.62 15.12-11.53 12.97-24.87l-95.13-584.39c8.61-2.76 57.97-21.62 115.35-31.03 20.52-3.51 17.88-19.95 14.81-38.32zm759.73 141.84c-38.03-233.72-98.42-411.93-334.49-373.6-235.47 38.25-235.09 226.16-197.1 459.82 37.72 233.83 96.75 410.38 332.07 372.09 236.18-38.33 237.58-224.5 199.52-458.31zm-182.59 29.6c28.08 172.31 36.51 242.19-44.9 255.64-79.75 12.63-94.91-56.08-123.03-228.35-27.97-173.67-35.56-243.48 44.26-256.37 81.53-13.23 95.51 55.45 123.67 229.08zm1849.77 82.24l-89.57-550.94c-32.01-196.35-123.4-225.19-254.93-203.91-97.1 15.91-179.04 75.75-185.2 81.45-33.45-22.37-80.88-37.98-145.89-27.51-64.17 10.24-139.65 38.32-187.65 61.53-59.57 29.93-88.14 51.74-78.99 107.22l108.36 667.77c2.19 12.96 9.45 21.32 19.69 19.73l145.62-23.81c10.13-1.82 15.05-11.79 12.89-24.8l-98.64-605.7c0 0 48-21.81 83.79-27.48 40.51-6.77 67.99 15.08 80.88 95.51l83.6 513.22c1.89 13.23 9.64 21.28 19.92 19.69l145.66-23.81c10.17-1.78 16.1-11.79 14.03-24.98l-98.46-605.6c0 0 41.76-21.05 78.5-26.91 39.87-6.38 72 14.56 84.85 94.95l83.38 513.26c2.45 13.26 9.9 21.24 20.18 19.65l145.85-23.7c10.02-1.62 14.33-11.56 12.13-24.83zm707.98-256.1l-67.16-412.42c-13.72-85.72-41.8-150.73-99.21-183.61-40.67-24.23-94.56-31.3-166.07-19.69-112.75 18.36-205.16 78.12-222.43 94.07-5.36 5.44-11.87 12.36-9.71 26.15 0.57 2.69 2.19 5.98 2.76 8.58l35.79 110.33c3.02 10.81 7.29 13.15 13.8 12.13 1.58-0.26 5.1-1.1 7.59-3.02 21.28-12.89 97.02-57.34 160.59-67.58 30.77-5.1 54.73-4.31 69.89 1.85 20.37 10.81 27.74 34.81 33.9 72.53l5.22 31.48-167.74 69.36c-65.54 25.85-147.74 70.07-116.79 260.67 38.06 233.77 169.89 240.19 296.92 219.74 61.08-9.97 107.49-24 146.38-44.22 65.73-35.34 95.02-58.81 76.27-176.35zm-174.19 34.54c-5.11 2.16-36.17 19.92-71.97 25.63-34.46 5.56-86.77 1.59-101.66-90.6-13.65-84.39 14.32-100 49.58-115.12l89.05-35.83zm981.85-30.99l-239.14-340.76 100.54-382.3c0.57-4.58 1.36-7.86 0.57-12.1-2.16-13.75-12.74-24.3-17.73-23.51l-143.47 23.13c-12.93 2.23-20.18 4.62-24.27 25.67l-45.24 256.63-141.54-228.02c-9.71-17.24-17.57-17.01-28.88-15.12l-146.38 23.43c-4.87 1.1-11.6 14.29-9.41 28.12 0.76 4.5 1.36 7.22 4.54 11.53l216.75 330.82-119.43 398.78c-0.83 1.81-1.62 4.76-0.83 9.34 1.44 9.22 7.11 18.63 13.53 17.8l160.93-26.16c7.3-1.36 12.36-9.41 13.72-19.16l62.21-277.91 160.52 243.44c5.1 6.99 11.57 13.23 19.92 11.91l159.87-25.97c6.2-0.72 8.39-12.09 6.99-20.97-0.79-4.54-2.15-7.3-3.77-8.62z"></path>
              <path id="path76" class="s3" d="m2809.46 2247.67l-18.15-111.54c-2.68-16.48-15.34-30.46-29.55-28l-280.97 45.77c-14.33 2.19-22.15 19.12-19.39 35.86l18.03 111.31c3.51 21.09 20.48 27.82 29.36 26.12l281.2-45.51c10.21-1.66 22.64-14.32 19.47-34.01z"></path>
              <path id="path78" class="s3" d="m917.24 2503.01c-40.52-234.29-78.81-389.82-374.25-359.32l-234.86 42.79 185.23 1104.26 167.7-27.17-55.33-307.58c308.22-9.53 345.9-247.75 311.51-452.98zm-324.17 293.86l-74.35-457.25c231.57-141.47 312.46 500.98 74.35 457.25z"></path>
            </g>
          </g>
        </g>
        <path id="path84" fill-rule="evenodd" class="s0" d="m3458.55 2.97c1528.75-69.92 2824.14 1112.12 2894.06 2641.21 59.23 1299.25-785.31 2422.15-1977.6 2779.01-195.82 59.49-436.87 108.92-642.86 109.6-95.24 0-190.64-11.98-279.49-43.61 173.59 6.99 334.33-16.75 506.6-45.47 1857.64-500.26 2928.42-2742.5 1246.98-4227.29-1109.59-750.27-2187.13-606.12-3055.4 413.75 189.61 95.36 273.26 149.21 434.23 291.81 690.55-273.33 1086.35-55.74 1500.24 567.5l-2204.33 22.26-20.53 172.84c1204.62-59.45 2245.35-69.62 3454.68-22.79-1483.08 159.87-2804.52 356.48-4218.14 772.72l-185.35 63.16c-10.47 2.12-5.44-20.3-8.69-30.77-47.09-183.11-76.69-373.26-85.64-569.95-69.93-1529.01 1113.75-2824.18 2641.24-2893.98z"></path>
        <path id="path86" fill-rule="evenodd" class="s1" d="m5684.69 2728.01c-1422.53 616.51-2676.02 1642.47-3685.04 2805.2-18.67-310.56-42.44-610.66-59.41-847.14-28.99-406.19-317.06-839.55-817.62-822.58l-1122.6 37.72c1489.81-600.23 4154.15-1076.48 5684.67-1173.2z"></path>
        <path id="path88" fill-rule="evenodd" class="s2" d="m2418.24 3850.22l-92.98-181.22 375.65-122.39 80.35 168.12z"></path>
        <path id="path90" fill-rule="evenodd" class="s2" d="m3071.6 3581.65l-72.15-154.2 356.79-82.93 62.93 142.45z"></path>
        <path id="path92" fill-rule="evenodd" class="s2" d="m3685.7 3381.34l-54.65-122.01 314.27-64.82 41.8 100.35z"></path>
        <path id="path94" fill-rule="evenodd" class="s2" d="m1558.21 3982.81l381.58-121.06 72.98 168.53-278.14 113.69z"></path>
        <g id="g96">
          <g id="g98">					</g>
          <g id="g150">
            <g id="Clip-Path: g148" clip-path="url(#cp3)">
              <g id="g148">
                <path id="path104" class="s3" d="m872.11 3042.73l-56.35 9.22 27.77 170.12-42.89 6.91-27.48-170.04-56.39 9.15-4.54-27.48 155.3-25.4z"></path>
                <path id="path106" class="s3" d="m1159.81 3170.78l-48 7.82-60.97-78.69-34.24 5.6 14.1 86.32-42.9 7.07-32.13-197.97 85.53-13.69c24.23-4.27 46.04-2.45 61.38 2.39 19.47 7.29 29.11 20.52 32.13 37.98 4.35 27.33-7.82 46.94-38.25 60.43zm-68.48-134.25c-2.95-19.08-19.66-26.6-49.1-22.11l-39.35 6.51 9.42 58.77 39.42-6.47c29.4-4.87 42.82-17.23 39.61-36.7z"></path>
                <path id="path108" class="s3" d="m1427.25 3127.39l-46.98 7.56-26.16-49.1-66.22 10.85-8.92 54.95-45.54 7.26 42.6-209.99 44.18-7.29zm-85.76-66.03l-16.97-31.6c-2.42-4.04-8.96-17.5-19.92-41.8-1.7 10.77-3.28 26.45-6.84 46.15l-5.86 35.37z"></path>
                <path id="path110" class="s3" d="m1683.08 3085.85l-35.07 5.67-91.39-93.54c-6.46-8.58-16.4-17.8-26.99-29.33 2.54 9.94 4.65 23.39 7.34 40.4l16.25 97.85-41.43 6.77-32.05-197.9 41.88-6.8 81.6 83.87c7.26 7.56 15.91 17.31 27.29 28.31-2.72-9.68-5.75-23.17-8.09-39.08l-14.29-87.05 42.6-6.99z"></path>
                <path id="path112" class="s3" d="m1923.8 2994.16c2.72 15.99-2.68 30.5-15.38 43.24-12.97 11.26-32.92 19.92-59.79 24.23-33.79 5.44-62.1-1.36-85.76-18.9l31.78-22.41c15.65 11.41 33.72 17.08 53.18 13.79 23.21-3.78 35.26-14.29 32.62-31.03-1.4-7.52-6.5-14.44-14.02-18.56-7.03-4.87-22.38-10.01-44.22-15.08-22.15-5.14-37.54-10.28-47.17-16.51-13.5-8.05-22.19-19.66-24.57-32.85-2.19-15.15 3.18-28.31 15.35-39.57 13.71-10.81 30.5-18.63 53.93-22.75 30.2-4.8 56.96-0.46 79.26 14.89l-28.31 22.68c-8.36-4.54-16.97-8.36-24-10.06-5.45-1.58-14.29-1.85-23.21-0.49-21.84 3.78-30.73 12.89-28.57 26.16 1.13 7.52 4.87 13.98 12.17 17.76 7.52 4.08 19.65 8.39 38.25 12.66 24.3 5.63 41.27 10.77 52.83 17.5 15.12 8.66 23.17 20.26 25.63 35.3z"></path>
                <path id="path114" class="s3" d="m2166.75 2863.54c3.21 19.31-3.63 35.72-19.47 48.68-15.34 12.7-34.5 21.05-58.77 25.1l-36.06 5.74 12.86 80.54-42.83 7-31.86-197.86 80.39-12.93c24.57-4.12 44.49-2.15 61.72 3.48 19.47 8.12 31.03 21.84 34.02 40.25zm-44.26 8.09c-1.93-10.85-7.26-18.67-16.44-21.39-9.9-3.75-20.52-4.54-32.85-2.42l-35.3 5.63 10.17 62.85 35.91-5.93c12.66-1.89 22.94-6.5 30.76-12.7 7.18-6.88 9.41-15.31 7.75-26.04z"></path>
                <path id="path116" class="s3" d="m2430.9 2862.67c4.84 30.2 2.15 55.6-9.98 75.74-12.85 22.08-35.53 35.83-65.76 40.71-31.03 5.1-56.05-1.06-74.38-17.77-17.81-14.55-28.61-38.55-33.45-67.99-4.88-30.16-2.12-56.31 9.94-76.23 11.94-21.89 33.98-35.87 64.74-40.78 31.26-5.33 57.18 1.09 76.27 17.84 16.75 14.32 27.74 38.21 32.62 68.48zm-42.56 7.79c-3.51-21.05-9.41-36.93-20.22-49.29-10.77-14.55-24.83-20.75-42.33-18.1-31.03 5.14-42.86 32.88-34.81 82.2 3.21 21.06 9.45 37.53 19.2 49.7 10.77 13.76 24.76 19.92 41.5 17.16 31.79-5.14 44.71-32.05 36.66-81.67z"></path>
                <path id="path118" class="s3" d="m2712.89 2918.46l-47.96 7.82-60.1-78.73-35.34 5.67 13.99 86.18-42.52 7.06-32.17-197.89 85.5-13.95c25.02-4.01 45.35-2.15 61.72 2.95 19.16 6.99 29.97 19.92 32.92 37.72 4.31 26.98-8.92 47.17-39.39 60.4zm-68.22-134.25c-2.91-19.13-19.16-26.99-49.24-22.11l-39.35 6.46 9.11 58.51 39.65-6.16c30.42-4.88 42.82-17.65 39.83-36.7z"></path>
                <path id="path120" class="s3" d="m2917.51 2710.28l-56.05 9.22 27.78 170.42-42.9 6.69-27.81-170.08-56.28 9.19-4.31-27.48 155.04-25.4z"></path>
                <path id="path122" class="s3" d="m3356.92 2813.88l-43.61 7.03-18.6-13.99c-12.93 14.78-33.71 24.99-58.02 29.03-24.49 3.74-42.06 1.62-55.74-4.04-13.23-7.26-20.26-18.03-22.68-32.28-3.78-23.51 8.88-46.98 39.68-69.02l-8.61-7.33c-12.17-10.28-19.2-15.95-22.68-20.75-5.97-6.46-9.71-12.92-10.81-19.46-1.85-12.59 2.99-23.62 14.59-32.62 11.79-10.47 27.51-16.4 49.02-19.88 24.57-4.08 47.73-2.76 70.64 3.7l-16.52 26.95c-18.74-5.63-36.58-8.01-50.08-5.63-19.08 3.29-25.55 10.24-24.26 19.47 1.66 9.41 6.5 18.02 18.25 28.04l65.31 51.44c3.03-8.32 5.49-19.92 7.11-31.26h36.09c-4.57 24.04-9.48 42.03-15.38 54.99zm-85.98-25.58l-50.38-40.71c-16.45 16.1-23.78 28.76-21.62 41.73 2.79 17.01 15.15 24.56 37.75 20.79 15.12-2.46 25.93-10.25 34.25-21.81z"></path>
                <path id="path124" class="s3" d="m3723.31 2754.27l-140.11 22.68-31.86-197.86 42.1-6.76 27.41 171.17 98.19-15.95z"></path>
                <path id="path126" class="s3" d="m3965.69 2613.34c4.88 30.16 2.19 55.44-10.73 75.89-12.97 21.84-34.81 35.72-65.77 40.78-30.2 4.84-55.29-1.36-74.46-18.07-16.93-14.51-27.74-38.55-32.69-67.91-4.76-30.16-2.15-56.36 9.3-76.31 12.93-22.11 34.43-35.79 64.89-40.75 31-5.1 56.92 0.91 75.22 18.07 18.67 14.1 29.18 38.02 34.24 68.3zm-43.39 8.01c-3.51-21.02-9.45-37.15-19.35-49.25-11.11-14.89-25.66-21.13-42.33-18.41-32.13 5.45-43.73 33.19-35.95 82.55 3.6 20.94 10.29 37.15 20.3 49.29 8.88 14.02 23.96 19.95 40.67 17.23 31.82-5.1 44.75-32.05 36.66-81.41z"></path>
                <path id="path128" class="s3" d="m4233.13 2612.16c2.98 18.41-1.36 32.96-13.99 46.11-12.17 14.06-33.18 23.51-61.71 28.12-30.81 5.11-56.09-1.13-75.97-17.84-17.39-15.34-27.9-38.51-32.73-67.65-4.88-32.05-2.76-58.54 10.73-77.67 12.77-21.81 35.68-35.22 65.88-39.87 44.48-7.33 73.85 3.21 89.16 34.51l-41.69 14.24c-4.88-9.44-10.02-15.38-17.54-18.33-6.8-4-16.14-4.31-26.42-2.61-16.48 2.61-27.25 11.27-33.22 26.84-6.43 13.76-6.99 32.13-3.25 55.63 3.25 19.17 9.22 34.78 18.9 47.74 11.11 13.64 25.89 19.65 44.22 16.89 14.32-2.34 23.73-7.25 28.08-13.15 5.93-5.89 7.52-15.95 5.59-28.57l-2.11-14.36-34.47 5.74-4.39-26.72 77.67-12.74z"></path>
                <path id="path130" class="s3" d="m4385.22 2646.71l-42.9 7.07-32.09-197.97 42.94-7z"></path>
                <path id="path132" class="s3" d="m4629.15 2554.49c2.76 15.95-2.65 30.69-15.31 43.08-12.74 11.42-32.96 19.7-58.81 24.12-34.51 5.67-63.91-0.87-86.74-18.63l31.75-22.38c15.65 11.34 33.98 16.89 52.27 13.72 24.04-3.74 36.4-14.21 33.75-31.03-1.32-7.48-5.89-14.82-14.32-18.33-6.65-5.07-22.38-10.24-43.66-15.35-22.37-5.06-37.98-10.24-48.49-16.44-12.4-8.08-20.29-19.61-22.45-33.14-2.72-14.86 2.5-28.05 14.36-39.35 12.63-10.88 30.47-18.63 53.9-22.6 30.2-4.87 56.62-0.68 78.95 15.04l-28.27 22.34c-9.18-4.31-16.7-8.35-23.17-9.94-6.76-1.36-14.89-1.81-24.83-0.23-20.25 3.25-30.76 12.93-28.53 26.38 1.28 7.34 5.89 13.5 13.42 17.24 7.29 4.08 19.12 8.43 38.02 12.96 24.26 5.6 42.06 10.25 52.08 17.28 15.12 8.92 23.92 20.14 26.08 35.26z"></path>
                <path id="path134" class="s3" d="m4839.74 2398.17l-56.35 8.96 27.78 170.22-42.67 7.07-27.67-170.34-56.16 9.18-4.54-27.47 155.3-25.4z"></path>
                <path id="path136" class="s3" d="m5000.67 2546.67l-42.85 6.76-32.05-197.59 42.82-7.07z"></path>
                <path id="path138" class="s3" d="m5255.72 2505.17l-149.1 24.34-32.39-197.9 143.54-23.17 4.27 26.84-99.81 16.29 8.65 52.83 64.48-10.54 4.53 26.72-64.74 10.43 10.58 64.74 105.72-17.23z"></path>
                <path id="path140" class="s3" d="m5513.97 2463.29l-46.11 7.41-72.26-89.84-20.71 31.03 11.83 72.04-42.86 6.87-32.43-197.74 42.97-6.77 8.09 50.16c2.19 12.32 3.78 22.6 4.31 32.05 4.8-8.58 11.03-18.11 19.69-32.66l41.84-61.72 48.45-7.86-55.75 80.35z"></path>
                <path id="path142" class="s3" d="m1505.1 2155.75l-19.88-122.04c-1.85-11.91-5.48-18.98-8.99-22.98-5.07-5.67-10.51-7.49-20.15-6.2l-17.27 3.02c-63.61 10.25-130.47 33.45-176.62 57.6-57.94 28.16-87.87 49.89-78.69 104.66l108.4 668.86c2.12 12.93 10.47 21.02 20.18 19.43l145.02-23.74c10.25-1.62 15.12-11.53 12.97-24.87l-95.13-584.39c8.61-2.76 57.97-21.62 115.35-31.03 20.52-3.51 17.88-19.95 14.81-38.32zm759.73 141.84c-38.03-233.72-98.42-411.93-334.49-373.6-235.47 38.25-235.09 226.16-197.1 459.82 37.72 233.83 96.75 410.38 332.07 372.09 236.18-38.33 237.58-224.5 199.52-458.31zm-182.59 29.6c28.08 172.31 36.51 242.19-44.9 255.64-79.75 12.63-94.91-56.08-123.03-228.35-27.97-173.67-35.56-243.48 44.26-256.37 81.53-13.23 95.51 55.45 123.67 229.08zm1849.77 82.24l-89.57-550.94c-32.01-196.35-123.4-225.19-254.93-203.91-97.1 15.91-179.04 75.75-185.2 81.45-33.45-22.37-80.88-37.98-145.89-27.51-64.17 10.24-139.65 38.32-187.65 61.53-59.57 29.93-88.14 51.74-78.99 107.22l108.36 667.77c2.19 12.96 9.45 21.32 19.69 19.73l145.62-23.81c10.13-1.82 15.05-11.79 12.89-24.8l-98.64-605.7c0 0 48-21.81 83.79-27.48 40.51-6.77 67.99 15.08 80.88 95.51l83.6 513.22c1.89 13.23 9.64 21.28 19.92 19.69l145.66-23.81c10.17-1.78 16.1-11.79 14.03-24.98l-98.46-605.6c0 0 41.76-21.05 78.5-26.91 39.87-6.38 72 14.56 84.85 94.95l83.38 513.26c2.45 13.26 9.9 21.24 20.18 19.65l145.85-23.7c10.02-1.62 14.33-11.56 12.13-24.83zm707.98-256.1l-67.16-412.42c-13.72-85.72-41.8-150.73-99.21-183.61-40.67-24.23-94.56-31.3-166.07-19.69-112.75 18.36-205.16 78.12-222.43 94.07-5.36 5.44-11.87 12.36-9.71 26.15 0.57 2.69 2.19 5.98 2.76 8.58l35.79 110.33c3.02 10.81 7.29 13.15 13.8 12.13 1.58-0.26 5.1-1.1 7.59-3.02 21.28-12.89 97.02-57.34 160.59-67.58 30.77-5.1 54.73-4.31 69.89 1.85 20.37 10.81 27.74 34.81 33.9 72.53l5.22 31.48-167.74 69.36c-65.54 25.85-147.74 70.07-116.79 260.67 38.06 233.77 169.89 240.19 296.92 219.74 61.08-9.97 107.49-24 146.38-44.22 65.73-35.34 95.02-58.81 76.27-176.35zm-174.19 34.54c-5.11 2.16-36.17 19.92-71.97 25.63-34.46 5.56-86.77 1.59-101.66-90.6-13.65-84.39 14.32-100 49.58-115.12l89.05-35.83zm981.85-30.99l-239.14-340.76 100.54-382.3c0.57-4.58 1.36-7.86 0.57-12.1-2.16-13.75-12.74-24.3-17.73-23.51l-143.47 23.13c-12.93 2.23-20.18 4.62-24.27 25.67l-45.24 256.63-141.54-228.02c-9.71-17.24-17.57-17.01-28.88-15.12l-146.38 23.43c-4.87 1.1-11.6 14.29-9.41 28.12 0.76 4.5 1.36 7.22 4.54 11.53l216.75 330.82-119.43 398.78c-0.83 1.81-1.62 4.76-0.83 9.34 1.44 9.22 7.11 18.63 13.53 17.8l160.93-26.16c7.3-1.36 12.36-9.41 13.72-19.16l62.21-277.91 160.52 243.44c5.1 6.99 11.57 13.23 19.92 11.91l159.87-25.97c6.2-0.72 8.39-12.09 6.99-20.97-0.79-4.54-2.15-7.3-3.77-8.62z"></path>
                <path id="path144" class="s3" d="m2809.46 2247.67l-18.15-111.54c-2.68-16.48-15.34-30.46-29.55-28l-280.97 45.77c-14.33 2.19-22.15 19.12-19.39 35.86l18.03 111.31c3.51 21.09 20.48 27.82 29.36 26.12l281.2-45.51c10.21-1.66 22.64-14.32 19.47-34.01z"></path>
                <path id="path146" class="s3" d="m917.24 2503.01c-40.52-234.29-78.81-389.82-374.25-359.32l-234.86 42.79 185.23 1104.26 167.7-27.17-55.33-307.58c308.22-9.53 345.9-247.75 311.51-452.98zm-324.17 293.86l-74.35-457.25c231.57-141.47 312.46 500.98 74.35 457.25z"></path>
              </g>
            </g>
          </g>
          <path id="path152" fill-rule="evenodd" class="s0" d="m3458.55 2.97c1528.75-69.92 2824.14 1112.12 2894.06 2641.21 59.23 1299.25-785.31 2422.15-1977.6 2779.01-195.82 59.49-436.87 108.92-642.86 109.6-95.24 0-190.64-11.98-279.49-43.61 173.59 6.99 334.33-16.75 506.6-45.47 1857.64-500.26 2928.42-2742.5 1246.98-4227.29-1109.59-750.27-2187.13-606.12-3055.4 413.75 189.61 95.36 273.26 149.21 434.23 291.81 690.55-273.33 1086.35-55.74 1500.24 567.5l-2204.33 22.26-20.53 172.84c1204.62-59.45 2245.35-69.62 3454.68-22.79-1483.08 159.87-2804.52 356.48-4218.14 772.72l-185.35 63.16c-10.47 2.12-5.44-20.3-8.69-30.77-47.09-183.11-76.69-373.26-85.64-569.95-69.93-1529.01 1113.75-2824.18 2641.24-2893.98z"></path>
          <path id="path154" fill-rule="evenodd" class="s1" d="m5684.69 2728.01c-1422.53 616.51-2676.02 1642.47-3685.04 2805.2-18.67-310.56-42.44-610.66-59.41-847.14-28.99-406.19-317.06-839.55-817.62-822.58l-1122.6 37.72c1489.81-600.23 4154.15-1076.48 5684.67-1173.2z"></path>
          <path id="path156" fill-rule="evenodd" class="s2" d="m2418.24 3850.22l-92.98-181.22 375.65-122.39 80.35 168.12z"></path>
          <path id="path158" fill-rule="evenodd" class="s2" d="m3071.6 3581.65l-72.15-154.2 356.79-82.93 62.93 142.45z"></path>
          <path id="path160" fill-rule="evenodd" class="s2" d="m3685.7 3381.34l-54.65-122.01 314.27-64.82 41.8 100.35z"></path>
          <path id="path162" fill-rule="evenodd" class="s2" d="m1558.21 3982.81l381.58-121.06 72.98 168.53-278.14 113.69z"></path>
          <g id="g164">
            <g id="g166">						</g>
            <g id="g218">
              <g id="Clip-Path: g216" clip-path="url(#cp4)">
                <g id="g216">
                  <path id="path172" class="s2" d="m872.11 3042.73l-56.35 9.22 27.77 170.12-42.89 6.91-27.48-170.04-56.39 9.15-4.54-27.48 155.3-25.4z"></path>
                  <path id="path174" class="s2" d="m1159.81 3170.78l-48 7.82-60.97-78.69-34.24 5.6 14.1 86.32-42.9 7.07-32.13-197.97 85.53-13.69c24.23-4.27 46.04-2.45 61.38 2.39 19.47 7.29 29.11 20.52 32.13 37.98 4.35 27.33-7.82 46.94-38.25 60.43zm-68.48-134.25c-2.95-19.08-19.66-26.6-49.1-22.11l-39.35 6.51 9.42 58.77 39.42-6.47c29.4-4.87 42.82-17.23 39.61-36.7z"></path>
                  <path id="path176" class="s2" d="m1427.25 3127.39l-46.98 7.56-26.16-49.1-66.22 10.85-8.92 54.95-45.54 7.26 42.6-209.99 44.18-7.29zm-85.76-66.03l-16.97-31.6c-2.42-4.04-8.96-17.5-19.92-41.8-1.7 10.77-3.28 26.45-6.84 46.15l-5.86 35.37z"></path>
                  <path id="path178" class="s2" d="m1683.08 3085.85l-35.07 5.67-91.39-93.54c-6.46-8.58-16.4-17.8-26.99-29.33 2.54 9.94 4.65 23.39 7.34 40.4l16.25 97.85-41.43 6.77-32.05-197.9 41.88-6.8 81.6 83.87c7.26 7.56 15.91 17.31 27.29 28.31-2.72-9.68-5.75-23.17-8.09-39.08l-14.29-87.05 42.6-6.99z"></path>
                  <path id="path180" class="s2" d="m1923.8 2994.16c2.72 15.99-2.68 30.5-15.38 43.24-12.97 11.26-32.92 19.92-59.79 24.23-33.79 5.44-62.1-1.36-85.76-18.9l31.78-22.41c15.65 11.41 33.72 17.08 53.18 13.79 23.21-3.78 35.26-14.29 32.62-31.03-1.4-7.52-6.5-14.44-14.02-18.56-7.03-4.87-22.38-10.01-44.22-15.08-22.15-5.14-37.54-10.28-47.17-16.51-13.5-8.05-22.19-19.66-24.57-32.85-2.19-15.15 3.18-28.31 15.35-39.57 13.71-10.81 30.5-18.63 53.93-22.75 30.2-4.8 56.96-0.46 79.26 14.89l-28.31 22.68c-8.36-4.54-16.97-8.36-24-10.06-5.45-1.58-14.29-1.85-23.21-0.49-21.84 3.78-30.73 12.89-28.57 26.16 1.13 7.52 4.87 13.98 12.17 17.76 7.52 4.08 19.65 8.39 38.25 12.66 24.3 5.63 41.27 10.77 52.83 17.5 15.12 8.66 23.17 20.26 25.63 35.3z"></path>
                  <path id="path182" class="s2" d="m2166.75 2863.54c3.21 19.31-3.63 35.72-19.47 48.68-15.34 12.7-34.5 21.05-58.77 25.1l-36.06 5.74 12.86 80.54-42.83 7-31.86-197.86 80.39-12.93c24.57-4.12 44.49-2.15 61.72 3.48 19.47 8.12 31.03 21.84 34.02 40.25zm-44.26 8.09c-1.93-10.85-7.26-18.67-16.44-21.39-9.9-3.75-20.52-4.54-32.85-2.42l-35.3 5.63 10.17 62.85 35.91-5.93c12.66-1.89 22.94-6.5 30.76-12.7 7.18-6.88 9.41-15.31 7.75-26.04z"></path>
                  <path id="path184" class="s2" d="m2430.9 2862.67c4.84 30.2 2.15 55.6-9.98 75.74-12.85 22.08-35.53 35.83-65.76 40.71-31.03 5.1-56.05-1.06-74.38-17.77-17.81-14.55-28.61-38.55-33.45-67.99-4.88-30.16-2.12-56.31 9.94-76.23 11.94-21.89 33.98-35.87 64.74-40.78 31.26-5.33 57.18 1.09 76.27 17.84 16.75 14.32 27.74 38.21 32.62 68.48zm-42.56 7.79c-3.51-21.05-9.41-36.93-20.22-49.29-10.77-14.55-24.83-20.75-42.33-18.1-31.03 5.14-42.86 32.88-34.81 82.2 3.21 21.06 9.45 37.53 19.2 49.7 10.77 13.76 24.76 19.92 41.5 17.16 31.79-5.14 44.71-32.05 36.66-81.67z"></path>
                  <path id="path186" class="s2" d="m2712.89 2918.46l-47.96 7.82-60.1-78.73-35.34 5.67 13.99 86.18-42.52 7.06-32.17-197.89 85.5-13.95c25.02-4.01 45.35-2.15 61.72 2.95 19.16 6.99 29.97 19.92 32.92 37.72 4.31 26.98-8.92 47.17-39.39 60.4zm-68.22-134.25c-2.91-19.13-19.16-26.99-49.24-22.11l-39.35 6.46 9.11 58.51 39.65-6.16c30.42-4.88 42.82-17.65 39.83-36.7z"></path>
                  <path id="path188" class="s2" d="m2917.51 2710.28l-56.05 9.22 27.78 170.42-42.9 6.69-27.81-170.08-56.28 9.19-4.31-27.48 155.04-25.4z"></path>
                  <path id="path190" class="s2" d="m3356.92 2813.88l-43.61 7.03-18.6-13.99c-12.93 14.78-33.71 24.99-58.02 29.03-24.49 3.74-42.06 1.62-55.74-4.04-13.23-7.26-20.26-18.03-22.68-32.28-3.78-23.51 8.88-46.98 39.68-69.02l-8.61-7.33c-12.17-10.28-19.2-15.95-22.68-20.75-5.97-6.46-9.71-12.92-10.81-19.46-1.85-12.59 2.99-23.62 14.59-32.62 11.79-10.47 27.51-16.4 49.02-19.88 24.57-4.08 47.73-2.76 70.64 3.7l-16.52 26.95c-18.74-5.63-36.58-8.01-50.08-5.63-19.08 3.29-25.55 10.24-24.26 19.47 1.66 9.41 6.5 18.02 18.25 28.04l65.31 51.44c3.03-8.32 5.49-19.92 7.11-31.26h36.09c-4.57 24.04-9.48 42.03-15.38 54.99zm-85.98-25.58l-50.38-40.71c-16.45 16.1-23.78 28.76-21.62 41.73 2.79 17.01 15.15 24.56 37.75 20.79 15.12-2.46 25.93-10.25 34.25-21.81z"></path>
                  <path id="path192" class="s2" d="m3723.31 2754.27l-140.11 22.68-31.86-197.86 42.1-6.76 27.41 171.17 98.19-15.95z"></path>
                  <path id="path194" class="s2" d="m3965.69 2613.34c4.88 30.16 2.19 55.44-10.73 75.89-12.97 21.84-34.81 35.72-65.77 40.78-30.2 4.84-55.29-1.36-74.46-18.07-16.93-14.51-27.74-38.55-32.69-67.91-4.76-30.16-2.15-56.36 9.3-76.31 12.93-22.11 34.43-35.79 64.89-40.75 31-5.1 56.92 0.91 75.22 18.07 18.67 14.1 29.18 38.02 34.24 68.3zm-43.39 8.01c-3.51-21.02-9.45-37.15-19.35-49.25-11.11-14.89-25.66-21.13-42.33-18.41-32.13 5.45-43.73 33.19-35.95 82.55 3.6 20.94 10.29 37.15 20.3 49.29 8.88 14.02 23.96 19.95 40.67 17.23 31.82-5.1 44.75-32.05 36.66-81.41z"></path>
                  <path id="path196" class="s2" d="m4233.13 2612.16c2.98 18.41-1.36 32.96-13.99 46.11-12.17 14.06-33.18 23.51-61.71 28.12-30.81 5.11-56.09-1.13-75.97-17.84-17.39-15.34-27.9-38.51-32.73-67.65-4.88-32.05-2.76-58.54 10.73-77.67 12.77-21.81 35.68-35.22 65.88-39.87 44.48-7.33 73.85 3.21 89.16 34.51l-41.69 14.24c-4.88-9.44-10.02-15.38-17.54-18.33-6.8-4-16.14-4.31-26.42-2.61-16.48 2.61-27.25 11.27-33.22 26.84-6.43 13.76-6.99 32.13-3.25 55.63 3.25 19.17 9.22 34.78 18.9 47.74 11.11 13.64 25.89 19.65 44.22 16.89 14.32-2.34 23.73-7.25 28.08-13.15 5.93-5.89 7.52-15.95 5.59-28.57l-2.11-14.36-34.47 5.74-4.39-26.72 77.67-12.74z"></path>
                  <path id="path198" class="s2" d="m4385.22 2646.71l-42.9 7.07-32.09-197.97 42.94-7z"></path>
                  <path id="path200" class="s2" d="m4629.15 2554.49c2.76 15.95-2.65 30.69-15.31 43.08-12.74 11.42-32.96 19.7-58.81 24.12-34.51 5.67-63.91-0.87-86.74-18.63l31.75-22.38c15.65 11.34 33.98 16.89 52.27 13.72 24.04-3.74 36.4-14.21 33.75-31.03-1.32-7.48-5.89-14.82-14.32-18.33-6.65-5.07-22.38-10.24-43.66-15.35-22.37-5.06-37.98-10.24-48.49-16.44-12.4-8.08-20.29-19.61-22.45-33.14-2.72-14.86 2.5-28.05 14.36-39.35 12.63-10.88 30.47-18.63 53.9-22.6 30.2-4.87 56.62-0.68 78.95 15.04l-28.27 22.34c-9.18-4.31-16.7-8.35-23.17-9.94-6.76-1.36-14.89-1.81-24.83-0.23-20.25 3.25-30.76 12.93-28.53 26.38 1.28 7.34 5.89 13.5 13.42 17.24 7.29 4.08 19.12 8.43 38.02 12.96 24.26 5.6 42.06 10.25 52.08 17.28 15.12 8.92 23.92 20.14 26.08 35.26z"></path>
                  <path id="path202" class="s2" d="m4839.74 2398.17l-56.35 8.96 27.78 170.22-42.67 7.07-27.67-170.34-56.16 9.18-4.54-27.47 155.3-25.4z"></path>
                  <path id="path204" class="s2" d="m5000.67 2546.67l-42.85 6.76-32.05-197.59 42.82-7.07z"></path>
                  <path id="path206" class="s2" d="m5255.72 2505.17l-149.1 24.34-32.39-197.9 143.54-23.17 4.27 26.84-99.81 16.29 8.65 52.83 64.48-10.54 4.53 26.72-64.74 10.43 10.58 64.74 105.72-17.23z"></path>
                  <path id="path208" class="s2" d="m5513.97 2463.29l-46.11 7.41-72.26-89.84-20.71 31.03 11.83 72.04-42.86 6.87-32.43-197.74 42.97-6.77 8.09 50.16c2.19 12.32 3.78 22.6 4.31 32.05 4.8-8.58 11.03-18.11 19.69-32.66l41.84-61.72 48.45-7.86-55.75 80.35z"></path>
                  <path id="path210" class="s2" d="m1505.1 2155.75l-19.88-122.04c-1.85-11.91-5.48-18.98-8.99-22.98-5.07-5.67-10.51-7.49-20.15-6.2l-17.27 3.02c-63.61 10.25-130.47 33.45-176.62 57.6-57.94 28.16-87.87 49.89-78.69 104.66l108.4 668.86c2.12 12.93 10.47 21.02 20.18 19.43l145.02-23.74c10.25-1.62 15.12-11.53 12.97-24.87l-95.13-584.39c8.61-2.76 57.97-21.62 115.35-31.03 20.52-3.51 17.88-19.95 14.81-38.32zm759.73 141.84c-38.03-233.72-98.42-411.93-334.49-373.6-235.47 38.25-235.09 226.16-197.1 459.82 37.72 233.83 96.75 410.38 332.07 372.09 236.18-38.33 237.58-224.5 199.52-458.31zm-182.59 29.6c28.08 172.31 36.51 242.19-44.9 255.64-79.75 12.63-94.91-56.08-123.03-228.35-27.97-173.67-35.56-243.48 44.26-256.37 81.53-13.23 95.51 55.45 123.67 229.08zm1849.77 82.24l-89.57-550.94c-32.01-196.35-123.4-225.19-254.93-203.91-97.1 15.91-179.04 75.75-185.2 81.45-33.45-22.37-80.88-37.98-145.89-27.51-64.17 10.24-139.65 38.32-187.65 61.53-59.57 29.93-88.14 51.74-78.99 107.22l108.36 667.77c2.19 12.96 9.45 21.32 19.69 19.73l145.62-23.81c10.13-1.82 15.05-11.79 12.89-24.8l-98.64-605.7c0 0 48-21.81 83.79-27.48 40.51-6.77 67.99 15.08 80.88 95.51l83.6 513.22c1.89 13.23 9.64 21.28 19.92 19.69l145.66-23.81c10.17-1.78 16.1-11.79 14.03-24.98l-98.46-605.6c0 0 41.76-21.05 78.5-26.91 39.87-6.38 72 14.56 84.85 94.95l83.38 513.26c2.45 13.26 9.9 21.24 20.18 19.65l145.85-23.7c10.02-1.62 14.33-11.56 12.13-24.83zm707.98-256.1l-67.16-412.42c-13.72-85.72-41.8-150.73-99.21-183.61-40.67-24.23-94.56-31.3-166.07-19.69-112.75 18.36-205.16 78.12-222.43 94.07-5.36 5.44-11.87 12.36-9.71 26.15 0.57 2.69 2.19 5.98 2.76 8.58l35.79 110.33c3.02 10.81 7.29 13.15 13.8 12.13 1.58-0.26 5.1-1.1 7.59-3.02 21.28-12.89 97.02-57.34 160.59-67.58 30.77-5.1 54.73-4.31 69.89 1.85 20.37 10.81 27.74 34.81 33.9 72.53l5.22 31.48-167.74 69.36c-65.54 25.85-147.74 70.07-116.79 260.67 38.06 233.77 169.89 240.19 296.92 219.74 61.08-9.97 107.49-24 146.38-44.22 65.73-35.34 95.02-58.81 76.27-176.35zm-174.19 34.54c-5.11 2.16-36.17 19.92-71.97 25.63-34.46 5.56-86.77 1.59-101.66-90.6-13.65-84.39 14.32-100 49.58-115.12l89.05-35.83zm981.85-30.99l-239.14-340.76 100.54-382.3c0.57-4.58 1.36-7.86 0.57-12.1-2.16-13.75-12.74-24.3-17.73-23.51l-143.47 23.13c-12.93 2.23-20.18 4.62-24.27 25.67l-45.24 256.63-141.54-228.02c-9.71-17.24-17.57-17.01-28.88-15.12l-146.38 23.43c-4.87 1.1-11.6 14.29-9.41 28.12 0.76 4.5 1.36 7.22 4.54 11.53l216.75 330.82-119.43 398.78c-0.83 1.81-1.62 4.76-0.83 9.34 1.44 9.22 7.11 18.63 13.53 17.8l160.93-26.16c7.3-1.36 12.36-9.41 13.72-19.16l62.21-277.91 160.52 243.44c5.1 6.99 11.57 13.23 19.92 11.91l159.87-25.97c6.2-0.72 8.39-12.09 6.99-20.97-0.79-4.54-2.15-7.3-3.77-8.62z"></path>
                  <path id="path212" class="s2" d="m2809.46 2247.67l-18.15-111.54c-2.68-16.48-15.34-30.46-29.55-28l-280.97 45.77c-14.33 2.19-22.15 19.12-19.39 35.86l18.03 111.31c3.51 21.09 20.48 27.82 29.36 26.12l281.2-45.51c10.21-1.66 22.64-14.32 19.47-34.01z"></path>
                  <path id="path214" class="s2" d="m917.24 2503.01c-40.52-234.29-78.81-389.82-374.25-359.32l-234.86 42.79 185.23 1104.26 167.7-27.17-55.33-307.58c308.22-9.53 345.9-247.75 311.51-452.98zm-324.17 293.86l-74.35-457.25c231.57-141.47 312.46 500.98 74.35 457.25z"></path>
                </g>
              </g>
            </g>
          </g>
        </g>
      </g>
    </g>
  </g>
</svg>
